<svg xmlns="http://www.w3.org/2000/svg" xmlns:xlink="http://www.w3.org/1999/xlink" width="1366" zoomAndPan="magnify" viewBox="0 0 1024.5 576" height="768" preserveAspectRatio="xMidYMid meet" version="1.0"><defs><clipPath id="224202767a"><path d="M 289.0625 62.636719 L 508 62.636719 L 508 253 L 289.0625 253 Z M 289.0625 62.636719 " clip-rule="nonzero"/></clipPath><clipPath id="29c8fec24c"><path d="M 465 164 L 684.3125 164 L 684.3125 355 L 465 355 Z M 465 164 " clip-rule="nonzero"/></clipPath><clipPath id="ab568c8f79"><path d="M 289.0625 264 L 508 264 L 508 454.136719 L 289.0625 454.136719 Z M 289.0625 264 " clip-rule="nonzero"/></clipPath><clipPath id="f90e93f2cb"><path d="M 265.59375 45.832031 L 488 45.832031 L 488 238 L 265.59375 238 Z M 265.59375 45.832031 " clip-rule="nonzero"/></clipPath><clipPath id="1a6caf206b"><path d="M 439 146 L 660.84375 146 L 660.84375 339 L 439 339 Z M 439 146 " clip-rule="nonzero"/></clipPath><clipPath id="e0d84caf3a"><path d="M 265.59375 246 L 488 246 L 488 438.082031 L 265.59375 438.082031 Z M 265.59375 246 " clip-rule="nonzero"/></clipPath></defs><g clip-path="url(#224202767a)"><path fill="#fbcb1c" d="M 453.179688 62.632812 L 343.769531 62.632812 L 289.066406 157.472656 L 343.769531 252.3125 L 453.179688 252.3125 L 507.886719 157.472656 Z M 453.179688 62.632812 " fill-opacity="1" fill-rule="nonzero"/></g><g clip-path="url(#29c8fec24c)"><path fill="#fbcb1c" d="M 629.605469 164.800781 L 520.195312 164.800781 L 465.488281 259.640625 L 520.195312 354.480469 L 629.605469 354.480469 L 684.308594 259.640625 Z M 629.605469 164.800781 " fill-opacity="1" fill-rule="nonzero"/></g><g clip-path="url(#ab568c8f79)"><path fill="#fbcb1c" d="M 453.179688 264.449219 L 343.769531 264.449219 L 289.066406 359.285156 L 343.769531 454.125 L 453.179688 454.125 L 507.886719 359.285156 Z M 453.179688 264.449219 " fill-opacity="1" fill-rule="nonzero"/></g><g clip-path="url(#f90e93f2cb)"><path fill="#ffffff" d="M 431.792969 237.824219 L 320.992188 237.824219 L 265.589844 141.832031 L 320.992188 45.84375 L 431.792969 45.84375 L 487.195312 141.832031 Z M 325.296875 230.367188 L 427.488281 230.367188 L 478.585938 141.832031 L 427.488281 53.296875 L 325.296875 53.296875 L 274.199219 141.832031 Z M 325.296875 230.367188 " fill-opacity="1" fill-rule="nonzero"/></g><g clip-path="url(#1a6caf206b)"><path fill="#ffffff" d="M 605.445312 338.507812 L 494.644531 338.507812 L 439.242188 242.515625 L 494.644531 146.523438 L 605.445312 146.523438 L 660.847656 242.515625 Z M 498.945312 331.050781 L 601.140625 331.050781 L 652.238281 242.515625 L 601.140625 153.980469 L 498.945312 153.980469 L 447.851562 242.515625 Z M 498.945312 331.050781 " fill-opacity="1" fill-rule="nonzero"/></g><g clip-path="url(#e0d84caf3a)"><path fill="#ffffff" d="M 431.792969 438.070312 L 320.992188 438.070312 L 265.589844 342.078125 L 320.992188 246.089844 L 431.792969 246.089844 L 487.195312 342.078125 Z M 325.296875 430.613281 L 427.488281 430.613281 L 478.585938 342.078125 L 427.488281 253.546875 L 325.296875 253.546875 L 274.199219 342.078125 Z M 325.296875 430.613281 " fill-opacity="1" fill-rule="nonzero"/></g></svg>