<svg xmlns="http://www.w3.org/2000/svg" xmlns:xlink="http://www.w3.org/1999/xlink" width="1366" zoomAndPan="magnify" viewBox="0 0 1024.5 576" height="768" preserveAspectRatio="xMidYMid meet" version="1.0"><defs><clipPath id="8525ffb9f2"><path d="M 383 149 L 651 149 L 651 339 L 383 339 Z M 383 149 " clip-rule="nonzero"/></clipPath><clipPath id="1af01e712b"><path d="M 433.800781 108.859375 L 691.527344 209.691406 L 590.695312 467.417969 L 332.96875 366.585938 Z M 433.800781 108.859375 " clip-rule="nonzero"/></clipPath><clipPath id="6f89b8b8a0"><path d="M 433.800781 108.859375 L 691.527344 209.691406 L 590.695312 467.417969 L 332.96875 366.585938 Z M 433.800781 108.859375 " clip-rule="nonzero"/></clipPath><clipPath id="b7c9015a7f"><path d="M 433.800781 108.859375 L 691.527344 209.691406 L 590.695312 467.417969 L 332.96875 366.585938 Z M 433.800781 108.859375 " clip-rule="nonzero"/></clipPath><clipPath id="e6188ff114"><path d="M 373 237 L 642 237 L 642 427 L 373 427 Z M 373 237 " clip-rule="nonzero"/></clipPath><clipPath id="c3c2473c32"><path d="M 433.800781 108.859375 L 691.527344 209.691406 L 590.695312 467.417969 L 332.96875 366.585938 Z M 433.800781 108.859375 " clip-rule="nonzero"/></clipPath><clipPath id="5ffb6e93f7"><path d="M 433.800781 108.859375 L 691.527344 209.691406 L 590.695312 467.417969 L 332.96875 366.585938 Z M 433.800781 108.859375 " clip-rule="nonzero"/></clipPath><clipPath id="5208312284"><path d="M 433.800781 108.859375 L 691.527344 209.691406 L 590.695312 467.417969 L 332.96875 366.585938 Z M 433.800781 108.859375 " clip-rule="nonzero"/></clipPath></defs><g clip-path="url(#8525ffb9f2)"><g clip-path="url(#1af01e712b)"><g clip-path="url(#6f89b8b8a0)"><g clip-path="url(#b7c9015a7f)"><path fill="#f16022" d="M 618.472656 329.699219 C 641.425781 271.027344 612.476562 204.867188 553.808594 181.914062 C 495.140625 158.964844 428.976562 187.914062 406.023438 246.582031 L 383.382812 237.726562 C 411.230469 166.546875 491.492188 131.429688 562.664062 159.277344 C 633.832031 187.117188 668.957031 267.378906 641.113281 338.554688 Z M 533.230469 296.351562 C 537.769531 284.75 532.050781 271.6875 520.460938 267.152344 C 508.867188 262.617188 495.796875 268.328125 491.261719 279.929688 L 468.070312 270.855469 L 468.074219 270.769531 L 549.21875 193.578125 L 556.453125 305.433594 Z M 533.230469 296.351562 " fill-opacity="1" fill-rule="nonzero"/></g></g></g></g><g clip-path="url(#e6188ff114)"><g clip-path="url(#c3c2473c32)"><g clip-path="url(#5ffb6e93f7)"><g clip-path="url(#5208312284)"><path fill="#99cccc" d="M 618.472656 329.699219 C 595.523438 388.355469 529.359375 417.316406 470.691406 394.363281 C 412.027344 371.410156 383.074219 305.242188 406.023438 246.582031 L 383.382812 237.726562 C 355.542969 308.886719 390.664062 389.160156 461.835938 417.003906 C 533 444.847656 613.269531 409.722656 641.113281 338.554688 Z M 533.230469 296.351562 C 528.695312 307.941406 515.632812 313.65625 504.042969 309.121094 C 492.445312 304.585938 486.726562 291.519531 491.261719 279.929688 L 468.070312 270.855469 L 468.015625 270.914062 L 475.238281 382.675781 L 556.453125 305.433594 Z M 533.230469 296.351562 " fill-opacity="1" fill-rule="nonzero"/></g></g></g></g></svg>