<svg xmlns="http://www.w3.org/2000/svg" xmlns:xlink="http://www.w3.org/1999/xlink" width="1366" zoomAndPan="magnify" viewBox="0 0 1024.5 576" height="768" preserveAspectRatio="xMidYMid meet" version="1.0"><defs><clipPath id="31db930d8c"><path d="M 480 373 L 545 373 L 545 398.992188 L 480 398.992188 Z M 480 373 " clip-rule="nonzero"/></clipPath><clipPath id="33b67d720f"><path d="M 388.289062 125.992188 L 636.539062 125.992188 L 636.539062 362 L 388.289062 362 Z M 388.289062 125.992188 " clip-rule="nonzero"/></clipPath></defs><g clip-path="url(#31db930d8c)"><path fill="#fbcb1c" d="M 543.617188 375.226562 C 543.007812 374.34375 541.792969 373.734375 541.019531 373.847656 L 483.972656 374.179688 C 483.972656 374.179688 481.925781 374.730469 481.375 375.613281 C 480.820312 376.5 480.710938 377.605469 481.152344 378.542969 C 486.570312 390.976562 498.898438 398.992188 512.441406 398.992188 C 526.203125 398.992188 538.53125 390.8125 543.890625 378.15625 C 544.28125 377.164062 544.167969 376.058594 543.617188 375.226562 Z M 543.617188 375.226562 " fill-opacity="1" fill-rule="nonzero"/></g><g clip-path="url(#33b67d720f)"><path fill="#fbcb1c" d="M 634.324219 344.613281 L 599.335938 315.433594 L 599.335938 237.679688 C 599.335938 198.277344 572.914062 164.953125 536.871094 154.339844 C 537.039062 153.179688 537.257812 152.019531 537.257812 150.804688 C 537.257812 137.097656 526.148438 125.992188 512.441406 125.992188 C 498.730469 125.992188 487.621094 137.097656 487.621094 150.804688 C 487.621094 152.019531 487.839844 153.179688 488.007812 154.339844 C 451.96875 164.953125 425.542969 198.21875 425.542969 237.679688 L 425.542969 315.433594 L 390.5 344.613281 C 389.0625 345.773438 388.289062 347.542969 388.289062 349.363281 L 388.289062 355.554688 C 388.289062 358.980469 391.050781 361.746094 394.480469 361.746094 L 630.34375 361.746094 C 633.773438 361.746094 636.535156 358.980469 636.535156 355.554688 L 636.535156 349.363281 C 636.535156 347.542969 635.707031 345.773438 634.324219 344.613281 Z M 500.113281 151.800781 C 500.113281 151.46875 500.003906 151.136719 500.003906 150.804688 C 500.003906 143.953125 505.585938 138.371094 512.441406 138.371094 C 519.292969 138.371094 524.820312 143.953125 524.820312 150.804688 C 524.820312 151.136719 524.765625 151.46875 524.710938 151.800781 C 520.675781 151.246094 516.585938 150.804688 512.382812 150.804688 C 508.183594 150.804688 504.148438 151.191406 500.113281 151.800781 Z M 500.113281 151.800781 " fill-opacity="1" fill-rule="nonzero"/></g></svg>