<svg xmlns="http://www.w3.org/2000/svg" xmlns:xlink="http://www.w3.org/1999/xlink" width="1366" zoomAndPan="magnify" viewBox="0 0 1024.5 576" height="768" preserveAspectRatio="xMidYMid meet" version="1.0"><defs><clipPath id="99485f4724"><path d="M 316.226562 92.117188 L 708.476562 92.117188 L 708.476562 484.367188 L 316.226562 484.367188 Z M 316.226562 92.117188 " clip-rule="nonzero"/></clipPath></defs><g clip-path="url(#99485f4724)"><path fill="#fdfdfd" d="M 512.351562 92.117188 C 509.140625 92.117188 505.933594 92.195312 502.730469 92.355469 C 499.523438 92.511719 496.324219 92.746094 493.128906 93.0625 C 489.933594 93.375 486.75 93.769531 483.574219 94.242188 C 480.398438 94.710938 477.238281 95.261719 474.089844 95.886719 C 470.941406 96.511719 467.8125 97.214844 464.699219 97.996094 C 461.585938 98.773438 458.492188 99.632812 455.421875 100.5625 C 452.347656 101.496094 449.300781 102.5 446.28125 103.582031 C 443.257812 104.664062 440.265625 105.820312 437.296875 107.046875 C 434.332031 108.273438 431.398438 109.574219 428.496094 110.949219 C 425.597656 112.320312 422.730469 113.761719 419.898438 115.277344 C 417.070312 116.789062 414.277344 118.371094 411.523438 120.019531 C 408.769531 121.671875 406.058594 123.386719 403.390625 125.171875 C 400.722656 126.953125 398.097656 128.800781 395.519531 130.714844 C 392.941406 132.625 390.414062 134.601562 387.933594 136.636719 C 385.449219 138.671875 383.019531 140.769531 380.644531 142.921875 C 378.265625 145.078125 375.941406 147.292969 373.671875 149.5625 C 371.402344 151.832031 369.1875 154.15625 367.03125 156.53125 C 364.878906 158.910156 362.78125 161.339844 360.746094 163.820312 C 358.710938 166.304688 356.734375 168.832031 354.824219 171.410156 C 352.910156 173.988281 351.0625 176.613281 349.28125 179.28125 C 347.496094 181.949219 345.78125 184.660156 344.128906 187.414062 C 342.480469 190.167969 340.898438 192.960938 339.386719 195.789062 C 337.871094 198.621094 336.429688 201.488281 335.058594 204.386719 C 333.683594 207.289062 332.382812 210.222656 331.15625 213.1875 C 329.929688 216.152344 328.773438 219.148438 327.691406 222.171875 C 326.609375 225.191406 325.605469 228.238281 324.671875 231.308594 C 323.742188 234.382812 322.882812 237.472656 322.105469 240.589844 C 321.324219 243.703125 320.621094 246.832031 319.996094 249.980469 C 319.371094 253.128906 318.820312 256.289062 318.351562 259.464844 C 317.878906 262.640625 317.484375 265.824219 317.171875 269.019531 C 316.855469 272.214844 316.621094 275.414062 316.464844 278.621094 C 316.304688 281.824219 316.226562 285.03125 316.226562 288.242188 C 316.226562 291.453125 316.304688 294.660156 316.464844 297.867188 C 316.621094 301.070312 316.855469 304.273438 317.171875 307.464844 C 317.484375 310.660156 317.878906 313.84375 318.351562 317.019531 C 318.820312 320.195312 319.371094 323.355469 319.996094 326.503906 C 320.621094 329.652344 321.324219 332.785156 322.105469 335.898438 C 322.882812 339.011719 323.742188 342.101562 324.671875 345.175781 C 325.605469 348.246094 326.609375 351.292969 327.691406 354.316406 C 328.773438 357.335938 329.929688 360.332031 331.15625 363.296875 C 332.382812 366.261719 333.683594 369.195312 335.058594 372.097656 C 336.429688 375 337.871094 377.863281 339.386719 380.695312 C 340.898438 383.527344 342.480469 386.316406 344.128906 389.070312 C 345.78125 391.824219 347.496094 394.535156 349.28125 397.203125 C 351.0625 399.871094 352.910156 402.496094 354.824219 405.074219 C 356.734375 407.652344 358.710938 410.183594 360.746094 412.664062 C 362.78125 415.144531 364.878906 417.574219 367.03125 419.953125 C 369.1875 422.332031 371.402344 424.652344 373.671875 426.925781 C 375.941406 429.195312 378.265625 431.40625 380.644531 433.5625 C 383.019531 435.71875 385.449219 437.8125 387.933594 439.847656 C 390.414062 441.886719 392.941406 443.859375 395.519531 445.773438 C 398.097656 447.683594 400.722656 449.53125 403.390625 451.316406 C 406.058594 453.097656 408.769531 454.8125 411.523438 456.464844 C 414.277344 458.113281 417.070312 459.695312 419.898438 461.210938 C 422.730469 462.722656 425.597656 464.164062 428.496094 465.539062 C 431.398438 466.910156 434.332031 468.210938 437.296875 469.4375 C 440.265625 470.667969 443.257812 471.820312 446.28125 472.902344 C 449.300781 473.984375 452.347656 474.992188 455.421875 475.921875 C 458.492188 476.855469 461.585938 477.710938 464.699219 478.488281 C 467.8125 479.269531 470.941406 479.972656 474.089844 480.597656 C 477.238281 481.226562 480.398438 481.773438 483.574219 482.246094 C 486.75 482.714844 489.933594 483.109375 493.128906 483.421875 C 496.324219 483.738281 499.523438 483.972656 502.730469 484.132812 C 505.933594 484.289062 509.140625 484.367188 512.351562 484.367188 C 515.5625 484.367188 518.769531 484.289062 521.976562 484.132812 C 525.179688 483.972656 528.382812 483.738281 531.574219 483.421875 C 534.769531 483.109375 537.953125 482.714844 541.128906 482.246094 C 544.304688 481.773438 547.464844 481.226562 550.613281 480.597656 C 553.761719 479.972656 556.894531 479.269531 560.007812 478.488281 C 563.121094 477.710938 566.210938 476.855469 569.285156 475.921875 C 572.355469 474.992188 575.402344 473.984375 578.425781 472.902344 C 581.445312 471.820312 584.441406 470.667969 587.40625 469.4375 C 590.371094 468.210938 593.304688 466.910156 596.207031 465.539062 C 599.109375 464.164062 601.972656 462.722656 604.804688 461.210938 C 607.636719 459.695312 610.425781 458.113281 613.179688 456.464844 C 615.933594 454.8125 618.644531 453.097656 621.3125 451.316406 C 623.980469 449.53125 626.605469 447.683594 629.183594 445.773438 C 631.761719 443.859375 634.292969 441.886719 636.773438 439.847656 C 639.253906 437.8125 641.683594 435.71875 644.0625 433.5625 C 646.441406 431.40625 648.765625 429.195312 651.035156 426.925781 C 653.304688 424.652344 655.515625 422.332031 657.671875 419.953125 C 659.828125 417.574219 661.921875 415.144531 663.957031 412.664062 C 665.996094 410.183594 667.96875 407.652344 669.882812 405.074219 C 671.792969 402.496094 673.640625 399.871094 675.425781 397.203125 C 677.207031 394.535156 678.925781 391.824219 680.574219 389.070312 C 682.222656 386.316406 683.804688 383.527344 685.320312 380.695312 C 686.832031 377.863281 688.273438 375 689.648438 372.097656 C 691.019531 369.195312 692.320312 366.261719 693.546875 363.296875 C 694.777344 360.332031 695.929688 357.335938 697.011719 354.316406 C 698.09375 351.292969 699.101562 348.246094 700.03125 345.175781 C 700.964844 342.101562 701.820312 339.011719 702.597656 335.898438 C 703.378906 332.785156 704.082031 329.652344 704.707031 326.503906 C 705.335938 323.355469 705.882812 320.195312 706.355469 317.019531 C 706.824219 313.84375 707.21875 310.660156 707.53125 307.464844 C 707.847656 304.273438 708.082031 301.070312 708.242188 297.867188 C 708.398438 294.660156 708.476562 291.453125 708.476562 288.242188 C 708.472656 285.035156 708.390625 281.828125 708.230469 278.621094 C 708.070312 275.417969 707.828125 272.21875 707.511719 269.027344 C 707.195312 265.832031 706.796875 262.648438 706.324219 259.476562 C 705.851562 256.304688 705.296875 253.144531 704.667969 249.996094 C 704.042969 246.851562 703.335938 243.722656 702.554688 240.609375 C 701.769531 237.496094 700.914062 234.40625 699.980469 231.335938 C 699.046875 228.265625 698.039062 225.222656 696.953125 222.203125 C 695.871094 219.179688 694.714844 216.1875 693.484375 213.226562 C 692.253906 210.261719 690.953125 207.328125 689.582031 204.429688 C 688.207031 201.53125 686.761719 198.664062 685.25 195.835938 C 683.734375 193.007812 682.152344 190.21875 680.503906 187.464844 C 678.851562 184.714844 677.136719 182.003906 675.351562 179.335938 C 673.570312 176.667969 671.722656 174.046875 669.808594 171.46875 C 667.898438 168.894531 665.921875 166.367188 663.886719 163.886719 C 661.851562 161.40625 659.753906 158.976562 657.601562 156.597656 C 655.445312 154.222656 653.234375 151.898438 650.964844 149.628906 C 648.695312 147.359375 646.371094 145.148438 643.996094 142.996094 C 641.617188 140.839844 639.1875 138.742188 636.710938 136.707031 C 634.230469 134.671875 631.699219 132.699219 629.125 130.785156 C 626.546875 128.875 623.925781 127.027344 621.257812 125.242188 C 618.589844 123.460938 615.882812 121.742188 613.128906 120.089844 C 610.378906 118.441406 607.585938 116.859375 604.757812 115.34375 C 601.929688 113.832031 599.066406 112.386719 596.164062 111.015625 C 593.265625 109.640625 590.332031 108.339844 587.371094 107.109375 C 584.40625 105.878906 581.414062 104.722656 578.394531 103.640625 C 575.371094 102.558594 572.328125 101.550781 569.257812 100.617188 C 566.1875 99.679688 563.097656 98.824219 559.984375 98.042969 C 556.875 97.257812 553.746094 96.554688 550.597656 95.925781 C 547.453125 95.296875 544.292969 94.746094 541.117188 94.269531 C 537.945312 93.796875 534.761719 93.402344 531.570312 93.082031 C 528.375 92.765625 525.175781 92.527344 521.972656 92.363281 C 518.765625 92.203125 515.5625 92.121094 512.351562 92.117188 Z M 512.351562 445.140625 C 509.785156 445.140625 507.21875 445.078125 504.652344 444.953125 C 502.089844 444.828125 499.527344 444.640625 496.972656 444.386719 C 494.417969 444.136719 491.871094 443.820312 489.332031 443.445312 C 486.789062 443.066406 484.261719 442.628906 481.742188 442.128906 C 479.222656 441.625 476.71875 441.0625 474.230469 440.441406 C 471.738281 439.816406 469.265625 439.132812 466.804688 438.386719 C 464.347656 437.640625 461.910156 436.835938 459.492188 435.972656 C 457.078125 435.105469 454.679688 434.183594 452.308594 433.199219 C 449.9375 432.214844 447.589844 431.175781 445.269531 430.078125 C 442.949219 428.980469 440.65625 427.828125 438.390625 426.617188 C 436.125 425.40625 433.890625 424.140625 431.6875 422.820312 C 429.488281 421.5 427.316406 420.125 425.183594 418.699219 C 423.046875 417.273438 420.949219 415.796875 418.886719 414.265625 C 416.824219 412.734375 414.800781 411.15625 412.816406 409.527344 C 410.832031 407.898438 408.886719 406.222656 406.984375 404.496094 C 405.082031 402.773438 403.222656 401.003906 401.40625 399.1875 C 399.589844 397.371094 397.820312 395.511719 396.097656 393.609375 C 394.371094 391.707031 392.695312 389.765625 391.066406 387.777344 C 389.4375 385.792969 387.859375 383.769531 386.328125 381.707031 C 384.800781 379.644531 383.320312 377.546875 381.894531 375.410156 C 380.46875 373.277344 379.09375 371.109375 377.773438 368.90625 C 376.453125 366.703125 375.1875 364.46875 373.980469 362.203125 C 372.769531 359.941406 371.613281 357.648438 370.515625 355.324219 C 369.417969 353.003906 368.378906 350.65625 367.394531 348.285156 C 366.414062 345.914062 365.488281 343.519531 364.625 341.101562 C 363.757812 338.683594 362.953125 336.246094 362.207031 333.789062 C 361.460938 331.332031 360.777344 328.855469 360.152344 326.367188 C 359.53125 323.875 358.96875 321.371094 358.46875 318.851562 C 357.964844 316.332031 357.527344 313.804688 357.148438 311.265625 C 356.773438 308.722656 356.460938 306.175781 356.207031 303.621094 C 355.957031 301.066406 355.765625 298.507812 355.640625 295.941406 C 355.515625 293.375 355.453125 290.808594 355.453125 288.242188 C 355.453125 285.675781 355.515625 283.109375 355.640625 280.542969 C 355.765625 277.980469 355.957031 275.417969 356.207031 272.863281 C 356.460938 270.308594 356.773438 267.761719 357.148438 265.21875 C 357.527344 262.679688 357.964844 260.152344 358.46875 257.632812 C 358.96875 255.113281 359.53125 252.609375 360.152344 250.117188 C 360.777344 247.628906 361.460938 245.152344 362.207031 242.695312 C 362.953125 240.238281 363.757812 237.800781 364.625 235.382812 C 365.488281 232.96875 366.414062 230.570312 367.394531 228.199219 C 368.378906 225.828125 369.417969 223.480469 370.515625 221.160156 C 371.613281 218.839844 372.769531 216.546875 373.980469 214.28125 C 375.1875 212.015625 376.453125 209.78125 377.773438 207.578125 C 379.09375 205.378906 380.46875 203.207031 381.894531 201.074219 C 383.320312 198.9375 384.800781 196.839844 386.328125 194.777344 C 387.859375 192.714844 389.4375 190.691406 391.066406 188.707031 C 392.695312 186.722656 394.371094 184.777344 396.097656 182.875 C 397.820312 180.972656 399.589844 179.113281 401.40625 177.296875 C 403.222656 175.480469 405.082031 173.710938 406.984375 171.988281 C 408.886719 170.261719 410.832031 168.585938 412.816406 166.957031 C 414.800781 165.328125 416.824219 163.75 418.886719 162.21875 C 420.949219 160.691406 423.046875 159.210938 425.183594 157.785156 C 427.316406 156.359375 429.488281 154.984375 431.6875 153.664062 C 433.890625 152.34375 436.125 151.078125 438.390625 149.867188 C 440.65625 148.660156 442.949219 147.503906 445.269531 146.40625 C 447.589844 145.308594 449.9375 144.269531 452.308594 143.285156 C 454.679688 142.304688 457.078125 141.378906 459.492188 140.515625 C 461.910156 139.648438 464.347656 138.84375 466.804688 138.097656 C 469.265625 137.351562 471.738281 136.667969 474.230469 136.042969 C 476.71875 135.421875 479.222656 134.859375 481.742188 134.355469 C 484.261719 133.855469 486.789062 133.417969 489.332031 133.039062 C 491.871094 132.664062 494.417969 132.351562 496.972656 132.097656 C 499.527344 131.847656 502.089844 131.65625 504.652344 131.53125 C 507.21875 131.40625 509.785156 131.34375 512.351562 131.34375 C 514.921875 131.34375 517.484375 131.40625 520.050781 131.53125 C 522.617188 131.65625 525.175781 131.847656 527.730469 132.097656 C 530.285156 132.351562 532.835938 132.664062 535.375 133.039062 C 537.914062 133.417969 540.445312 133.855469 542.960938 134.355469 C 545.480469 134.859375 547.984375 135.421875 550.476562 136.042969 C 552.964844 136.667969 555.441406 137.351562 557.898438 138.097656 C 560.355469 138.84375 562.792969 139.648438 565.210938 140.515625 C 567.628906 141.378906 570.023438 142.304688 572.394531 143.285156 C 574.765625 144.269531 577.113281 145.308594 579.433594 146.40625 C 581.757812 147.503906 584.050781 148.660156 586.3125 149.867188 C 588.578125 151.078125 590.8125 152.34375 593.015625 153.664062 C 595.21875 154.984375 597.386719 156.359375 599.519531 157.785156 C 601.65625 159.210938 603.753906 160.691406 605.816406 162.21875 C 607.878906 163.75 609.902344 165.328125 611.886719 166.957031 C 613.875 168.585938 615.816406 170.261719 617.71875 171.988281 C 619.621094 173.710938 621.480469 175.480469 623.296875 177.296875 C 625.113281 179.113281 626.882812 180.972656 628.605469 182.875 C 630.332031 184.777344 632.007812 186.722656 633.636719 188.707031 C 635.265625 190.691406 636.847656 192.714844 638.375 194.777344 C 639.90625 196.839844 641.382812 198.9375 642.808594 201.074219 C 644.234375 203.207031 645.609375 205.378906 646.929688 207.578125 C 648.25 209.78125 649.515625 212.015625 650.726562 214.28125 C 651.9375 216.546875 653.089844 218.839844 654.1875 221.160156 C 655.285156 223.480469 656.324219 225.828125 657.308594 228.199219 C 658.292969 230.570312 659.214844 232.96875 660.082031 235.382812 C 660.945312 237.800781 661.75 240.238281 662.496094 242.695312 C 663.242188 245.152344 663.925781 247.628906 664.550781 250.117188 C 665.175781 252.609375 665.738281 255.113281 666.238281 257.632812 C 666.738281 260.152344 667.175781 262.679688 667.554688 265.21875 C 667.929688 267.761719 668.246094 270.308594 668.496094 272.863281 C 668.75 275.417969 668.9375 277.980469 669.0625 280.542969 C 669.1875 283.109375 669.253906 285.675781 669.253906 288.242188 C 669.25 290.808594 669.183594 293.375 669.054688 295.9375 C 668.925781 298.503906 668.734375 301.0625 668.480469 303.617188 C 668.226562 306.171875 667.910156 308.71875 667.53125 311.253906 C 667.152344 313.792969 666.710938 316.324219 666.207031 318.839844 C 665.707031 321.355469 665.140625 323.859375 664.515625 326.351562 C 663.890625 328.839844 663.203125 331.3125 662.457031 333.769531 C 661.710938 336.222656 660.902344 338.660156 660.035156 341.078125 C 659.171875 343.492188 658.246094 345.886719 657.261719 348.257812 C 656.277344 350.628906 655.238281 352.976562 654.136719 355.292969 C 653.039062 357.613281 651.882812 359.90625 650.671875 362.167969 C 649.460938 364.433594 648.195312 366.664062 646.875 368.867188 C 645.554688 371.066406 644.183594 373.234375 642.753906 375.371094 C 641.328125 377.503906 639.851562 379.601562 638.320312 381.664062 C 636.792969 383.722656 635.210938 385.746094 633.582031 387.730469 C 631.953125 389.714844 630.277344 391.660156 628.554688 393.558594 C 626.832031 395.460938 625.0625 397.320312 623.246094 399.136719 C 621.429688 400.949219 619.570312 402.722656 617.671875 404.445312 C 615.769531 406.167969 613.824219 407.84375 611.839844 409.472656 C 609.855469 411.101562 607.835938 412.683594 605.773438 414.210938 C 603.710938 415.742188 601.613281 417.21875 599.480469 418.644531 C 597.34375 420.074219 595.179688 421.445312 592.976562 422.765625 C 590.773438 424.085938 588.542969 425.351562 586.28125 426.5625 C 584.015625 427.773438 581.722656 428.929688 579.40625 430.027344 C 577.085938 431.128906 574.738281 432.167969 572.367188 433.152344 C 569.996094 434.136719 567.601562 435.0625 565.1875 435.925781 C 562.769531 436.792969 560.335938 437.601562 557.878906 438.347656 C 555.421875 439.09375 552.949219 439.78125 550.460938 440.40625 C 547.96875 441.03125 545.46875 441.59375 542.949219 442.097656 C 540.433594 442.601562 537.902344 443.042969 535.367188 443.421875 C 532.828125 443.800781 530.28125 444.117188 527.726562 444.371094 C 525.171875 444.625 522.613281 444.816406 520.046875 444.945312 C 517.484375 445.074219 514.917969 445.140625 512.351562 445.140625 Z M 512.351562 445.140625 " fill-opacity="1" fill-rule="nonzero"/></g><path fill="#fdfdfd" d="M 530.316406 172.882812 C 529.050781 172.539062 527.773438 172.230469 526.488281 171.960938 C 525.203125 171.691406 523.910156 171.457031 522.609375 171.261719 C 521.3125 171.0625 520.007812 170.90625 518.699219 170.785156 C 517.390625 170.660156 516.082031 170.578125 514.769531 170.53125 C 513.457031 170.484375 512.140625 170.476562 510.828125 170.507812 C 509.515625 170.535156 508.203125 170.601562 506.894531 170.707031 C 505.585938 170.8125 504.28125 170.953125 502.976562 171.132812 C 501.675781 171.3125 500.382812 171.527344 499.09375 171.78125 C 497.804688 172.035156 496.523438 172.328125 495.25 172.652344 C 493.980469 172.980469 492.714844 173.34375 491.464844 173.746094 C 490.214844 174.144531 488.976562 174.578125 487.75 175.050781 C 486.523438 175.519531 485.308594 176.027344 484.113281 176.566406 C 482.914062 177.109375 481.734375 177.683594 480.570312 178.289062 C 479.40625 178.898438 478.257812 179.539062 477.132812 180.214844 C 476.003906 180.886719 474.898438 181.59375 473.808594 182.332031 C 472.722656 183.070312 471.65625 183.835938 470.613281 184.636719 C 469.570312 185.433594 468.554688 186.261719 467.558594 187.121094 C 466.5625 187.976562 465.59375 188.863281 464.648438 189.773438 C 463.703125 190.6875 462.785156 191.628906 461.894531 192.59375 C 461.003906 193.558594 460.140625 194.550781 459.308594 195.5625 C 458.472656 196.578125 457.667969 197.617188 456.894531 198.679688 C 456.121094 199.738281 455.378906 200.824219 454.667969 201.925781 C 453.953125 203.03125 453.273438 204.152344 452.625 205.296875 C 451.980469 206.441406 451.363281 207.601562 450.785156 208.777344 C 450.203125 209.957031 449.65625 211.152344 449.144531 212.359375 C 448.632812 213.570312 448.15625 214.792969 447.710938 216.03125 C 447.269531 217.269531 446.863281 218.515625 446.492188 219.777344 C 446.125 221.039062 445.789062 222.308594 445.492188 223.585938 C 445.195312 224.867188 444.933594 226.152344 444.710938 227.449219 C 444.488281 228.742188 444.300781 230.042969 444.152344 231.347656 C 444.003906 232.652344 443.890625 233.960938 443.816406 235.273438 C 443.742188 236.585938 443.707031 237.898438 443.707031 239.210938 C 443.707031 239.855469 443.738281 240.496094 443.804688 241.132812 C 443.867188 241.773438 443.960938 242.40625 444.085938 243.039062 C 444.210938 243.667969 444.367188 244.289062 444.554688 244.90625 C 444.738281 245.519531 444.957031 246.125 445.203125 246.714844 C 445.445312 247.308594 445.722656 247.890625 446.023438 248.457031 C 446.328125 249.023438 446.65625 249.574219 447.015625 250.105469 C 447.371094 250.640625 447.753906 251.15625 448.160156 251.652344 C 448.566406 252.148438 449 252.625 449.453125 253.078125 C 449.90625 253.535156 450.382812 253.964844 450.878906 254.371094 C 451.375 254.78125 451.890625 255.160156 452.425781 255.519531 C 452.957031 255.875 453.507812 256.207031 454.074219 256.507812 C 454.640625 256.8125 455.222656 257.085938 455.816406 257.332031 C 456.410156 257.578125 457.011719 257.792969 457.628906 257.980469 C 458.242188 258.164062 458.863281 258.320312 459.496094 258.445312 C 460.125 258.574219 460.757812 258.667969 461.398438 258.730469 C 462.039062 258.792969 462.679688 258.824219 463.320312 258.824219 C 463.964844 258.824219 464.605469 258.792969 465.242188 258.730469 C 465.882812 258.667969 466.515625 258.574219 467.148438 258.445312 C 467.777344 258.320312 468.398438 258.164062 469.015625 257.980469 C 469.628906 257.792969 470.234375 257.578125 470.828125 257.332031 C 471.417969 257.085938 472 256.8125 472.566406 256.507812 C 473.132812 256.207031 473.683594 255.875 474.21875 255.519531 C 474.75 255.160156 475.265625 254.78125 475.761719 254.371094 C 476.257812 253.964844 476.734375 253.535156 477.1875 253.078125 C 477.644531 252.625 478.074219 252.148438 478.480469 251.652344 C 478.890625 251.15625 479.269531 250.640625 479.628906 250.105469 C 479.984375 249.574219 480.316406 249.023438 480.617188 248.457031 C 480.921875 247.890625 481.195312 247.308594 481.441406 246.714844 C 481.6875 246.125 481.902344 245.519531 482.089844 244.90625 C 482.273438 244.289062 482.429688 243.667969 482.554688 243.039062 C 482.683594 242.40625 482.777344 241.773438 482.839844 241.132812 C 482.902344 240.496094 482.933594 239.855469 482.933594 239.210938 C 482.925781 236.960938 483.175781 234.742188 483.683594 232.550781 C 484.1875 230.359375 484.9375 228.253906 485.929688 226.234375 C 486.917969 224.214844 488.128906 222.335938 489.554688 220.597656 C 490.980469 218.855469 492.582031 217.300781 494.367188 215.929688 C 496.199219 214.519531 498.167969 213.339844 500.273438 212.390625 C 502.382812 211.4375 504.570312 210.742188 506.839844 210.300781 C 509.109375 209.859375 511.398438 209.6875 513.707031 209.777344 C 516.015625 209.871094 518.285156 210.230469 520.511719 210.851562 C 521.710938 211.183594 522.886719 211.589844 524.035156 212.074219 C 525.183594 212.558594 526.296875 213.113281 527.375 213.742188 C 528.449219 214.367188 529.480469 215.0625 530.46875 215.824219 C 531.457031 216.582031 532.390625 217.40625 533.269531 218.285156 C 534.152344 219.167969 534.972656 220.101562 535.730469 221.089844 C 536.492188 222.078125 537.183594 223.109375 537.808594 224.1875 C 538.4375 225.265625 538.992188 226.378906 539.472656 227.527344 C 539.957031 228.675781 540.363281 229.851562 540.691406 231.050781 C 541.121094 232.578125 541.425781 234.125 541.605469 235.699219 C 541.785156 237.269531 541.839844 238.847656 541.769531 240.429688 C 541.695312 242.011719 541.5 243.578125 541.175781 245.128906 C 540.851562 246.679688 540.40625 248.191406 539.839844 249.671875 C 539.273438 251.148438 538.59375 252.574219 537.800781 253.945312 C 537.007812 255.3125 536.109375 256.613281 535.105469 257.835938 C 534.101562 259.0625 533.007812 260.199219 531.824219 261.25 C 530.640625 262.300781 529.378906 263.25 528.042969 264.097656 C 525.421875 265.667969 522.910156 267.394531 520.503906 269.277344 C 518.101562 271.164062 515.828125 273.191406 513.679688 275.363281 C 511.535156 277.535156 509.53125 279.832031 507.675781 282.257812 C 505.816406 284.683594 504.121094 287.214844 502.582031 289.851562 C 501.046875 292.492188 499.679688 295.21875 498.488281 298.027344 C 497.292969 300.839844 496.28125 303.714844 495.453125 306.652344 C 494.621094 309.59375 493.980469 312.570312 493.527344 315.59375 C 493.074219 318.613281 492.808594 321.648438 492.738281 324.703125 L 492.738281 327.46875 C 492.738281 328.109375 492.769531 328.75 492.835938 329.390625 C 492.898438 330.027344 492.992188 330.664062 493.117188 331.292969 C 493.242188 331.921875 493.398438 332.546875 493.585938 333.160156 C 493.769531 333.777344 493.988281 334.378906 494.234375 334.972656 C 494.476562 335.566406 494.753906 336.144531 495.054688 336.710938 C 495.359375 337.277344 495.6875 337.828125 496.046875 338.363281 C 496.402344 338.898438 496.785156 339.414062 497.191406 339.910156 C 497.597656 340.40625 498.03125 340.882812 498.484375 341.335938 C 498.9375 341.789062 499.414062 342.222656 499.910156 342.628906 C 500.40625 343.035156 500.921875 343.417969 501.457031 343.773438 C 501.988281 344.132812 502.539062 344.460938 503.105469 344.765625 C 503.671875 345.066406 504.253906 345.339844 504.847656 345.585938 C 505.441406 345.832031 506.042969 346.050781 506.660156 346.234375 C 507.273438 346.421875 507.894531 346.578125 508.527344 346.703125 C 509.15625 346.828125 509.789062 346.921875 510.429688 346.984375 C 511.070312 347.046875 511.710938 347.078125 512.351562 347.078125 C 512.996094 347.078125 513.636719 347.046875 514.273438 346.984375 C 514.914062 346.921875 515.546875 346.828125 516.179688 346.703125 C 516.808594 346.578125 517.429688 346.421875 518.046875 346.234375 C 518.660156 346.050781 519.265625 345.832031 519.859375 345.585938 C 520.449219 345.339844 521.03125 345.066406 521.597656 344.765625 C 522.164062 344.460938 522.714844 344.132812 523.25 343.773438 C 523.78125 343.417969 524.296875 343.035156 524.792969 342.628906 C 525.289062 342.222656 525.765625 341.789062 526.21875 341.335938 C 526.675781 340.882812 527.105469 340.40625 527.511719 339.910156 C 527.921875 339.414062 528.300781 338.898438 528.660156 338.363281 C 529.015625 337.828125 529.347656 337.277344 529.648438 336.710938 C 529.953125 336.144531 530.226562 335.566406 530.472656 334.972656 C 530.71875 334.378906 530.933594 333.777344 531.121094 333.160156 C 531.304688 332.546875 531.460938 331.921875 531.585938 331.292969 C 531.714844 330.664062 531.808594 330.027344 531.871094 329.390625 C 531.933594 328.75 531.964844 328.109375 531.964844 327.46875 L 531.964844 324.703125 C 532.035156 323.296875 532.195312 321.898438 532.441406 320.511719 C 532.691406 319.125 533.023438 317.761719 533.445312 316.414062 C 533.867188 315.070312 534.371094 313.757812 534.957031 312.480469 C 535.542969 311.199219 536.210938 309.960938 536.953125 308.765625 C 537.699219 307.566406 538.515625 306.421875 539.402344 305.332031 C 540.292969 304.238281 541.246094 303.207031 542.269531 302.234375 C 543.289062 301.261719 544.363281 300.359375 545.5 299.523438 C 546.632812 298.691406 547.816406 297.929688 549.046875 297.246094 C 550.582031 296.269531 552.074219 295.230469 553.527344 294.136719 C 554.976562 293.042969 556.386719 291.890625 557.746094 290.6875 C 559.105469 289.480469 560.417969 288.222656 561.679688 286.914062 C 562.941406 285.601562 564.152344 284.246094 565.304688 282.839844 C 566.460938 281.4375 567.558594 279.988281 568.597656 278.496094 C 569.636719 277.003906 570.617188 275.472656 571.535156 273.90625 C 572.453125 272.335938 573.308594 270.730469 574.101562 269.09375 C 574.894531 267.457031 575.621094 265.792969 576.28125 264.097656 C 576.945312 262.40625 577.535156 260.6875 578.0625 258.945312 C 578.585938 257.203125 579.042969 255.445312 579.429688 253.667969 C 579.8125 251.890625 580.128906 250.101562 580.375 248.300781 C 580.617188 246.496094 580.792969 244.6875 580.894531 242.875 C 580.996094 241.058594 581.023438 239.242188 580.984375 237.421875 C 580.941406 235.605469 580.828125 233.792969 580.644531 231.980469 C 580.457031 230.171875 580.203125 228.375 579.875 226.585938 C 579.546875 224.796875 579.148438 223.023438 578.683594 221.265625 C 577.910156 218.375 576.957031 215.550781 575.816406 212.785156 C 574.675781 210.023438 573.355469 207.347656 571.863281 204.753906 C 570.371094 202.164062 568.714844 199.683594 566.894531 197.308594 C 565.078125 194.9375 563.109375 192.695312 560.996094 190.578125 C 558.882812 188.464844 556.640625 186.496094 554.269531 184.675781 C 551.894531 182.855469 549.414062 181.199219 546.824219 179.707031 C 544.234375 178.210938 541.558594 176.894531 538.796875 175.75 C 536.03125 174.609375 533.207031 173.652344 530.316406 172.882812 Z M 530.316406 172.882812 " fill-opacity="1" fill-rule="nonzero"/><path fill="#fdfdfd" d="M 531.964844 386.304688 C 531.964844 386.949219 531.933594 387.589844 531.871094 388.226562 C 531.808594 388.867188 531.714844 389.5 531.585938 390.132812 C 531.460938 390.761719 531.304688 391.382812 531.121094 392 C 530.933594 392.613281 530.71875 393.21875 530.472656 393.808594 C 530.226562 394.402344 529.953125 394.984375 529.648438 395.550781 C 529.347656 396.117188 529.015625 396.667969 528.660156 397.199219 C 528.300781 397.734375 527.921875 398.25 527.511719 398.746094 C 527.105469 399.242188 526.675781 399.71875 526.21875 400.171875 C 525.765625 400.628906 525.289062 401.058594 524.792969 401.464844 C 524.296875 401.875 523.78125 402.253906 523.25 402.613281 C 522.714844 402.96875 522.164062 403.300781 521.597656 403.601562 C 521.03125 403.90625 520.449219 404.179688 519.859375 404.425781 C 519.265625 404.671875 518.660156 404.886719 518.046875 405.074219 C 517.429688 405.257812 516.808594 405.414062 516.179688 405.539062 C 515.546875 405.664062 514.914062 405.761719 514.273438 405.824219 C 513.636719 405.886719 512.996094 405.917969 512.351562 405.917969 C 511.710938 405.917969 511.070312 405.886719 510.429688 405.824219 C 509.789062 405.761719 509.15625 405.664062 508.527344 405.539062 C 507.894531 405.414062 507.273438 405.257812 506.660156 405.074219 C 506.042969 404.886719 505.441406 404.671875 504.847656 404.425781 C 504.253906 404.179688 503.671875 403.90625 503.105469 403.601562 C 502.539062 403.300781 501.988281 402.96875 501.457031 402.613281 C 500.921875 402.253906 500.40625 401.875 499.910156 401.464844 C 499.414062 401.058594 498.9375 400.628906 498.484375 400.171875 C 498.03125 399.71875 497.597656 399.242188 497.191406 398.746094 C 496.785156 398.25 496.402344 397.734375 496.046875 397.199219 C 495.6875 396.667969 495.359375 396.117188 495.054688 395.550781 C 494.753906 394.984375 494.476562 394.402344 494.234375 393.808594 C 493.988281 393.21875 493.769531 392.613281 493.585938 392 C 493.398438 391.382812 493.242188 390.761719 493.117188 390.132812 C 492.992188 389.5 492.898438 388.867188 492.835938 388.226562 C 492.769531 387.589844 492.738281 386.949219 492.738281 386.304688 C 492.738281 385.664062 492.769531 385.023438 492.835938 384.382812 C 492.898438 383.742188 492.992188 383.109375 493.117188 382.480469 C 493.242188 381.847656 493.398438 381.226562 493.585938 380.613281 C 493.769531 379.996094 493.988281 379.394531 494.234375 378.800781 C 494.476562 378.207031 494.753906 377.625 495.054688 377.058594 C 495.359375 376.492188 495.6875 375.941406 496.046875 375.410156 C 496.402344 374.875 496.785156 374.359375 497.191406 373.863281 C 497.597656 373.367188 498.03125 372.890625 498.484375 372.4375 C 498.9375 371.984375 499.414062 371.550781 499.910156 371.144531 C 500.40625 370.738281 500.921875 370.355469 501.457031 369.996094 C 501.988281 369.640625 502.539062 369.3125 503.105469 369.007812 C 503.671875 368.707031 504.253906 368.429688 504.847656 368.183594 C 505.441406 367.941406 506.042969 367.722656 506.660156 367.535156 C 507.273438 367.351562 507.894531 367.195312 508.527344 367.070312 C 509.15625 366.945312 509.789062 366.851562 510.429688 366.785156 C 511.070312 366.722656 511.710938 366.691406 512.351562 366.691406 C 512.996094 366.691406 513.636719 366.722656 514.273438 366.785156 C 514.914062 366.851562 515.546875 366.945312 516.179688 367.070312 C 516.808594 367.195312 517.429688 367.351562 518.046875 367.535156 C 518.660156 367.722656 519.265625 367.941406 519.859375 368.183594 C 520.449219 368.429688 521.03125 368.707031 521.597656 369.007812 C 522.164062 369.3125 522.714844 369.640625 523.25 369.996094 C 523.78125 370.355469 524.296875 370.738281 524.792969 371.144531 C 525.289062 371.550781 525.765625 371.984375 526.21875 372.4375 C 526.675781 372.890625 527.105469 373.367188 527.511719 373.863281 C 527.921875 374.359375 528.300781 374.875 528.660156 375.410156 C 529.015625 375.941406 529.347656 376.492188 529.648438 377.058594 C 529.953125 377.625 530.226562 378.207031 530.472656 378.800781 C 530.71875 379.394531 530.933594 379.996094 531.121094 380.613281 C 531.304688 381.226562 531.460938 381.847656 531.585938 382.480469 C 531.714844 383.109375 531.808594 383.742188 531.871094 384.382812 C 531.933594 385.023438 531.964844 385.664062 531.964844 386.304688 Z M 531.964844 386.304688 " fill-opacity="1" fill-rule="nonzero"/></svg>