<svg xmlns="http://www.w3.org/2000/svg" xmlns:xlink="http://www.w3.org/1999/xlink" width="1366" zoomAndPan="magnify" viewBox="0 0 1024.5 576" height="768" preserveAspectRatio="xMidYMid meet" version="1.0"><defs><clipPath id="ff147e6241"><path d="M 500 84.011719 L 524 84.011719 L 524 131 L 500 131 Z M 500 84.011719 " clip-rule="nonzero"/></clipPath><clipPath id="a7e3f2b957"><path d="M 318 84.011719 L 706 84.011719 L 706 492 L 318 492 Z M 318 84.011719 " clip-rule="nonzero"/></clipPath></defs><g clip-path="url(#ff147e6241)"><path fill="#604533" d="M 520.457031 84.667969 L 503.679688 84.667969 C 501.894531 84.667969 500.453125 86.113281 500.453125 87.894531 L 500.453125 127.53125 C 500.453125 129.3125 501.894531 130.757812 503.679688 130.757812 L 520.457031 130.757812 C 522.238281 130.757812 523.683594 129.3125 523.683594 127.53125 L 523.683594 87.894531 C 523.683594 86.113281 522.238281 84.667969 520.457031 84.667969 Z M 520.457031 84.667969 " fill-opacity="1" fill-rule="nonzero"/></g><path fill="#604533" d="M 565.375 341.5625 L 565.375 341.59375 C 554.726562 360.121094 534.851562 372.578125 512.070312 372.578125 C 489.253906 372.578125 469.378906 360.121094 458.730469 341.5625 C 453.503906 332.457031 450.503906 321.871094 450.503906 310.574219 C 450.503906 296.855469 454.921875 284.171875 462.410156 273.90625 C 473.605469 258.542969 491.675781 248.539062 512.070312 248.539062 C 532.460938 248.539062 550.53125 258.542969 561.726562 273.90625 C 569.214844 284.171875 573.636719 296.855469 573.636719 310.574219 C 573.636719 321.871094 570.632812 332.425781 565.40625 341.5625 Z M 565.375 341.5625 " fill-opacity="1" fill-rule="nonzero"/><path fill="#ef9d26" d="M 610 448.65625 C 610 448.65625 588.640625 486.324219 517.230469 488.066406 C 515.554688 488.097656 513.8125 488.132812 512.070312 488.132812 C 436.53125 488.132812 414.136719 448.65625 414.136719 448.65625 Z M 610 448.65625 " fill-opacity="1" fill-rule="nonzero"/><path fill="#f9b132" d="M 649.171875 423.320312 C 649.171875 437.230469 637.816406 448.65625 624.003906 448.65625 L 400.132812 448.65625 C 386.324219 448.65625 374.964844 437.230469 374.964844 423.320312 C 374.964844 409.375 386.324219 397.949219 400.132812 397.949219 L 624.003906 397.949219 C 637.816406 397.949219 649.171875 409.375 649.171875 423.320312 Z M 649.171875 423.320312 " fill-opacity="1" fill-rule="nonzero"/><path fill="#ffc05a" d="M 671.566406 369.738281 C 671.566406 385.199219 658.949219 397.949219 643.589844 397.949219 L 380.546875 397.949219 C 365.1875 397.949219 352.570312 385.199219 352.570312 369.738281 C 352.570312 354.277344 365.1875 341.5625 380.546875 341.5625 L 458.730469 341.5625 C 469.378906 360.121094 489.253906 372.578125 512.070312 372.578125 C 513.8125 372.578125 515.523438 372.515625 517.230469 372.355469 C 537.851562 370.644531 555.53125 358.699219 565.375 341.59375 L 565.375 341.5625 L 643.589844 341.5625 C 658.949219 341.5625 671.566406 354.277344 671.566406 369.738281 Z M 671.566406 369.738281 " fill-opacity="1" fill-rule="nonzero"/><path fill="#f9b132" d="M 450.503906 310.574219 C 450.503906 321.871094 453.503906 332.457031 458.730469 341.5625 L 358.152344 341.5625 C 339.019531 342.269531 323.175781 327.746094 321.789062 310.574219 C 320.269531 291.53125 336.824219 273.328125 358.152344 273.90625 L 462.410156 273.90625 C 454.921875 284.171875 450.503906 296.855469 450.503906 310.574219 Z M 450.503906 310.574219 " fill-opacity="1" fill-rule="nonzero"/><path fill="#f9b132" d="M 665.984375 273.90625 C 687.3125 273.328125 703.867188 291.53125 702.351562 310.574219 C 700.960938 327.746094 685.121094 342.269531 665.984375 341.5625 C 658.53125 341.5625 651.042969 341.5625 643.589844 341.5625 C 617.519531 341.5625 591.445312 341.5625 565.40625 341.5625 C 570.632812 332.425781 573.636719 321.871094 573.636719 310.574219 C 573.636719 296.855469 569.214844 284.171875 561.726562 273.90625 Z M 665.984375 273.90625 " fill-opacity="1" fill-rule="nonzero"/><path fill="#ef9d26" d="M 671.566406 245.730469 C 671.566406 261.191406 658.949219 273.90625 643.589844 273.90625 L 561.726562 273.90625 C 551.5 259.867188 535.496094 250.28125 517.230469 248.796875 C 515.523438 248.601562 513.8125 248.539062 512.070312 248.539062 C 491.675781 248.539062 473.605469 258.542969 462.410156 273.90625 L 380.546875 273.90625 C 365.1875 273.90625 352.570312 261.191406 352.570312 245.730469 C 352.570312 230.269531 365.1875 217.550781 380.546875 217.550781 L 643.589844 217.550781 C 658.949219 217.550781 671.566406 230.269531 671.566406 245.730469 Z M 671.566406 245.730469 " fill-opacity="1" fill-rule="nonzero"/><path fill="#e58e1a" d="M 649.171875 192.183594 C 649.171875 206.09375 637.816406 217.550781 624.003906 217.550781 L 400.132812 217.550781 C 386.324219 217.550781 374.964844 206.09375 374.964844 192.183594 C 374.964844 178.269531 386.324219 166.8125 400.132812 166.8125 L 624.003906 166.8125 C 637.816406 166.8125 649.171875 178.269531 649.171875 192.183594 Z M 649.171875 192.183594 " fill-opacity="1" fill-rule="nonzero"/><path fill="#d87c0e" d="M 610 166.8125 L 414.136719 166.8125 C 414.136719 166.8125 434.851562 130.308594 503.679688 127.53125 C 506.390625 127.433594 509.195312 127.371094 512.070312 127.371094 C 513.8125 127.371094 515.554688 127.402344 517.230469 127.433594 C 518.328125 127.464844 519.394531 127.5 520.457031 127.53125 C 589.285156 130.308594 610 166.8125 610 166.8125 Z M 610 166.8125 " fill-opacity="1" fill-rule="nonzero"/><g clip-path="url(#a7e3f2b957)"><path fill="#3a322b" d="M 695.273438 282.859375 C 687.632812 274.816406 676.945312 270.324219 665.972656 270.691406 L 662.460938 270.691406 C 669.941406 264.945312 674.792969 255.910156 674.792969 245.734375 C 674.792969 228.410156 660.792969 214.320312 643.585938 214.320312 L 641.949219 214.320312 C 648.324219 209.074219 652.40625 201.101562 652.40625 192.183594 C 652.40625 176.414062 639.660156 163.589844 623.996094 163.589844 L 611.773438 163.589844 C 606.839844 156.328125 583.710938 127.796875 523.6875 124.46875 L 523.6875 87.894531 C 523.6875 86.113281 522.246094 84.667969 520.460938 84.667969 C 518.675781 84.667969 517.234375 86.113281 517.234375 87.894531 L 517.234375 124.210938 C 515.53125 124.167969 513.828125 124.125 512.066406 124.125 C 510.304688 124.125 508.601562 124.167969 506.894531 124.210938 L 506.894531 87.894531 C 506.894531 86.113281 505.453125 84.667969 503.667969 84.667969 C 501.886719 84.667969 500.441406 86.113281 500.441406 87.894531 L 500.441406 124.46875 C 440.425781 127.796875 417.289062 156.328125 412.355469 163.589844 L 400.132812 163.589844 C 384.46875 163.589844 371.722656 176.414062 371.722656 192.183594 C 371.722656 201.101562 375.804688 209.074219 382.179688 214.320312 L 380.542969 214.320312 C 363.335938 214.320312 349.335938 228.414062 349.335938 245.734375 C 349.335938 255.914062 354.191406 264.949219 361.671875 270.695312 L 358.25 270.695312 C 347.128906 270.339844 336.496094 274.816406 328.859375 282.859375 C 321.519531 290.589844 317.765625 300.777344 318.566406 310.816406 C 320.085938 329.839844 337.109375 344.820312 356.742188 344.820312 C 357.214844 344.820312 357.691406 344.8125 358.164062 344.796875 L 361.671875 344.796875 C 354.195312 350.539062 349.339844 359.574219 349.339844 369.753906 C 349.339844 387.074219 363.34375 401.164062 380.550781 401.164062 L 382.175781 401.164062 C 375.800781 406.414062 371.726562 414.386719 371.726562 423.304688 C 371.726562 439.070312 384.472656 451.898438 400.140625 451.898438 L 412.363281 451.898438 C 417.597656 459.613281 443.34375 491.359375 512.070312 491.359375 C 580.792969 491.359375 606.535156 459.613281 611.773438 451.898438 L 624 451.898438 C 639.660156 451.898438 652.410156 439.070312 652.410156 423.304688 C 652.410156 414.386719 648.335938 406.414062 641.960938 401.164062 L 643.585938 401.164062 C 660.796875 401.164062 674.796875 387.070312 674.796875 369.753906 C 674.796875 359.570312 669.941406 350.539062 662.460938 344.792969 L 665.851562 344.792969 C 666.332031 344.808594 666.8125 344.816406 667.285156 344.816406 C 687.027344 344.816406 704.050781 329.839844 705.5625 310.820312 C 706.367188 300.78125 702.613281 290.589844 695.273438 282.859375 Z M 512.070312 130.585938 C 568.664062 130.585938 594.730469 153.394531 603.554688 163.589844 L 420.546875 163.589844 C 429.292969 153.390625 455.222656 130.585938 512.070312 130.585938 Z M 378.179688 192.183594 C 378.179688 179.976562 388.03125 170.042969 400.140625 170.042969 L 624 170.042969 C 636.105469 170.042969 645.957031 179.976562 645.957031 192.183594 C 645.957031 204.390625 636.105469 214.320312 624 214.320312 L 400.136719 214.320312 C 388.03125 214.320312 378.179688 204.390625 378.179688 192.183594 Z M 380.550781 270.695312 C 366.902344 270.695312 355.792969 259.496094 355.792969 245.738281 C 355.792969 231.976562 366.898438 220.78125 380.550781 220.78125 L 643.585938 220.78125 C 657.234375 220.78125 668.339844 231.976562 668.339844 245.738281 C 668.339844 259.496094 657.238281 270.695312 643.585938 270.695312 L 563.234375 270.695312 C 551.375 255.292969 532.878906 245.328125 512.070312 245.328125 C 491.257812 245.328125 472.765625 255.296875 460.902344 270.695312 L 380.554688 270.695312 C 380.554688 270.695312 380.554688 270.695312 380.550781 270.695312 Z M 562.582031 339.984375 C 552.167969 358.09375 532.8125 369.34375 512.070312 369.34375 C 479.902344 369.34375 453.734375 342.976562 453.734375 310.5625 C 453.734375 278.148438 479.902344 251.777344 512.070312 251.777344 C 544.234375 251.777344 570.402344 278.144531 570.402344 310.558594 C 570.402344 320.910156 567.699219 331.082031 562.582031 339.984375 Z M 358.042969 338.339844 C 341.132812 339 326.285156 326.382812 325.003906 310.304688 C 324.351562 302.09375 327.460938 293.707031 333.542969 287.304688 C 339.921875 280.585938 348.890625 276.898438 358.167969 277.148438 L 456.53125 277.148438 C 450.699219 286.933594 447.285156 298.34375 447.285156 310.5625 C 447.285156 320.503906 449.570312 329.894531 453.539062 338.335938 L 380.550781 338.335938 C 380.539062 338.335938 380.535156 338.335938 380.527344 338.335938 Z M 512.070312 484.902344 C 455.480469 484.902344 429.414062 462.101562 420.585938 451.898438 L 603.554688 451.898438 C 594.726562 462.101562 568.652344 484.902344 512.070312 484.902344 Z M 645.957031 423.304688 C 645.957031 435.511719 636.105469 445.445312 624 445.445312 L 400.136719 445.445312 C 388.03125 445.445312 378.179688 435.511719 378.179688 423.304688 C 378.179688 411.097656 388.03125 401.167969 400.136719 401.167969 L 624 401.167969 C 636.105469 401.164062 645.957031 411.097656 645.957031 423.304688 Z M 668.339844 369.753906 C 668.339844 383.515625 657.238281 394.707031 643.585938 394.707031 L 380.550781 394.707031 C 366.902344 394.707031 355.792969 383.511719 355.792969 369.753906 C 355.792969 355.992188 366.898438 344.796875 380.550781 344.796875 L 457.019531 344.796875 C 468.453125 363.363281 488.820312 375.800781 512.070312 375.800781 C 534.492188 375.800781 555.421875 363.953125 567.191406 344.796875 L 643.585938 344.796875 C 657.238281 344.792969 668.339844 355.988281 668.339844 369.753906 Z M 699.128906 310.304688 C 697.847656 326.382812 683.003906 338.898438 665.972656 338.335938 L 570.671875 338.335938 C 574.710938 329.691406 576.855469 320.195312 576.855469 310.5625 C 576.855469 298.34375 573.4375 286.933594 567.609375 277.148438 L 666.066406 277.148438 C 675.25 276.882812 684.210938 280.589844 690.597656 287.304688 C 696.675781 293.710938 699.785156 302.09375 699.128906 310.304688 Z M 699.128906 310.304688 " fill-opacity="1" fill-rule="nonzero"/></g></svg>